<svg width="24" height="24" viewBox="0 0 24 24" fill="none" xmlns="http://www.w3.org/2000/svg">
<path d="M8.99979 20.0033C8.80204 20.0033 8.60874 19.9446 8.44433 19.8347C8.27992 19.7249 8.15178 19.5687 8.07611 19.386C8.00044 19.2033 7.98064 19.0023 8.0192 18.8083C8.05777 18.6144 8.15298 18.4362 8.29279 18.2963L14.5858 12.0033L8.29279 5.71034C8.11063 5.52173 8.00983 5.26913 8.01211 5.00694C8.01439 4.74474 8.11956 4.49393 8.30497 4.30852C8.49038 4.12311 8.74119 4.01794 9.00339 4.01566C9.26558 4.01338 9.51818 4.11418 9.70679 4.29634L16.7068 11.2963C16.8943 11.4839 16.9996 11.7382 16.9996 12.0033C16.9996 12.2685 16.8943 12.5228 16.7068 12.7103L9.70679 19.7103C9.51929 19.8979 9.26498 20.0033 8.99979 20.0033Z" fill="#52525A"/>
</svg>
