<svg width="22" height="22" viewBox="0 0 22 22" fill="none" xmlns="http://www.w3.org/2000/svg">
<path d="M16.6111 3.9751L3.9751 16.6111C4.39299 17.133 4.8672 17.6072 5.3891 18.0251L18.0251 5.3891C17.6072 4.8672 17.133 4.39299 16.6111 3.9751Z" fill="#EC4040"/>
<path opacity="0.4" d="M11 0C8.82441 0 6.69767 0.645139 4.88873 1.85383C3.07979 3.06253 1.66989 4.78049 0.83733 6.79048C0.00476617 8.80047 -0.213071 11.0122 0.211367 13.146C0.635804 15.2798 1.68345 17.2398 3.22183 18.7782C4.76021 20.3166 6.72022 21.3642 8.85401 21.7886C10.9878 22.2131 13.1995 21.9952 15.2095 21.1627C17.2195 20.3301 18.9375 18.9202 20.1462 17.1113C21.3549 15.3023 22 13.1756 22 11C21.9966 8.08367 20.8365 5.28778 18.7744 3.22563C16.7122 1.16347 13.9163 0.00344047 11 0ZM11 20C8.95917 20.0008 6.97938 19.3039 5.389 18.025C4.8671 17.6071 4.3929 17.1329 3.975 16.611C2.59041 14.8838 1.89185 12.7064 2.01317 10.496C2.13449 8.28565 3.06716 6.19779 4.63248 4.63247C6.19779 3.06716 8.28566 2.13449 10.496 2.01317C12.7064 1.89184 14.8838 2.59041 16.611 3.975C17.1329 4.3929 17.6071 4.8671 18.025 5.389C19.085 6.71149 19.7496 8.30672 19.942 9.99065C20.1344 11.6746 19.8468 13.3786 19.1123 14.9061C18.3779 16.4336 17.2266 17.7224 15.7912 18.6237C14.3558 19.525 12.6949 20.0021 11 20Z" fill="#EC4040"/>
</svg>
