<svg width="19" height="19" viewBox="0 0 19 19" fill="none" xmlns="http://www.w3.org/2000/svg">
<path d="M14 18.75H4.00004C3.49338 18.8088 2.98 18.7522 2.4983 18.5845C2.0166 18.4168 1.57906 18.1423 1.2184 17.7817C0.857736 17.421 0.583296 16.9835 0.415604 16.5018C0.247913 16.0201 0.191312 15.5067 0.250036 15V5.00004C0.191312 4.49338 0.247913 3.98 0.415604 3.4983C0.583296 3.0166 0.857736 2.57906 1.2184 2.2184C1.57906 1.85774 2.0166 1.5833 2.4983 1.4156C2.98 1.24791 3.49338 1.19131 4.00004 1.25004H7.00004C7.19895 1.25004 7.38971 1.32905 7.53037 1.46971C7.67102 1.61036 7.75004 1.80112 7.75004 2.00004C7.75004 2.19895 7.67102 2.38971 7.53037 2.53037C7.38971 2.67102 7.19895 2.75004 7.00004 2.75004H4.00004C2.42304 2.75004 1.75004 3.42304 1.75004 5.00004V15C1.75004 16.577 2.42304 17.25 4.00004 17.25H14C15.577 17.25 16.25 16.577 16.25 15V12C16.25 11.8011 16.3291 11.6104 16.4697 11.4697C16.6104 11.3291 16.8011 11.25 17 11.25C17.1989 11.25 17.3897 11.3291 17.5304 11.4697C17.671 11.6104 17.75 11.8011 17.75 12V15C17.8088 15.5067 17.7522 16.0201 17.5845 16.5018C17.4168 16.9835 17.1423 17.421 16.7817 17.7817C16.421 18.1423 15.9835 18.4168 15.5018 18.5845C15.0201 18.7522 14.5067 18.8088 14 18.75Z" fill="#52525A"/>
<path d="M18.57 4.07957L16.68 5.95957L13.04 2.31957L14.92 0.429566C15.1909 0.156981 15.5587 0.00286827 15.943 0.000993862C16.3272 -0.000880549 16.6966 0.149636 16.97 0.419566L18.58 2.02957C18.85 2.30305 19.0005 2.67238 18.9986 3.05663C18.9967 3.44089 18.8426 3.80873 18.57 4.07957Z" fill="#52525A"/>
<path opacity="0.4" d="M16.68 5.95934L9.61 12.9993H6V9.38934L13.04 2.31934L16.68 5.95934Z" fill="#52525A"/>
</svg>
