<svg width="18" height="14" viewBox="0 0 18 14" fill="none" xmlns="http://www.w3.org/2000/svg">
<path opacity="0.4" d="M17.5921 8.477C17.8591 8.03061 18.0001 7.52017 18.0001 7C18.0001 6.47983 17.8591 5.96939 17.5921 5.523C16.3651 3.469 13.6101 0 9.00007 0C4.39007 0 1.63507 3.469 0.408073 5.523C0.141027 5.96939 0 6.47983 0 7C0 7.52017 0.141027 8.03061 0.408073 8.477C1.63507 10.531 4.39007 14 9.00007 14C13.6101 14 16.3651 10.531 17.5921 8.477Z" fill="#52525A"/>
<path d="M9.00022 3.50001C8.64494 3.50497 8.29252 3.56433 7.95522 3.67601C8.18532 3.99013 8.29545 4.37621 8.2657 4.76445C8.23595 5.15269 8.06829 5.51748 7.79301 5.79288C7.51774 6.06827 7.15302 6.2361 6.76479 6.26602C6.37656 6.29594 5.99044 6.18598 5.67622 5.95601C5.45833 6.65842 5.46791 7.4117 5.70356 8.10834C5.93922 8.80498 6.38892 9.40937 6.98848 9.83525C7.58804 10.2611 8.3068 10.4867 9.04219 10.4798C9.77758 10.473 10.492 10.234 11.0835 9.79693C11.675 9.3599 12.1133 8.74719 12.3359 8.04627C12.5584 7.34534 12.5539 6.59201 12.3229 5.89381C12.0919 5.19561 11.6463 4.58822 11.0496 4.15833C10.4529 3.72845 9.73564 3.49805 9.00022 3.50001Z" fill="#52525A"/>
</svg>
