<svg width="5" height="20" viewBox="0 0 5 20" fill="none" xmlns="http://www.w3.org/2000/svg">
<path opacity="0.4" d="M2.02014 4C1.48971 4.00133 0.980475 3.79188 0.604465 3.41775C0.228455 3.04361 0.0164691 2.53543 0.015143 2.005C0.0138169 1.47457 0.223258 0.965333 0.597394 0.589322C0.971529 0.213312 1.47971 0.00132609 2.01014 0H2.02014C2.55058 0 3.05928 0.210714 3.43436 0.585786C3.80943 0.960859 4.02014 1.46957 4.02014 2C4.02014 2.53043 3.80943 3.03914 3.43436 3.41421C3.05928 3.78929 2.55058 4 2.02014 4Z" fill="#52525A"/>
<path d="M2.02014 12C1.48971 12.0013 0.980475 11.7919 0.604465 11.4177C0.228455 11.0436 0.0164691 10.5354 0.015143 10.005C0.0138169 9.47457 0.223258 8.96533 0.597394 8.58932C0.971529 8.21331 1.47971 8.00133 2.01014 8H2.02014C2.55058 8 3.05928 8.21071 3.43436 8.58579C3.80943 8.96086 4.02014 9.46957 4.02014 10C4.02014 10.5304 3.80943 11.0391 3.43436 11.4142C3.05928 11.7893 2.55058 12 2.02014 12Z" fill="#52525A"/>
<path opacity="0.4" d="M2.02014 20C1.7575 20.0007 1.4973 19.9496 1.2544 19.8497C1.01149 19.7498 0.790647 19.603 0.604465 19.4177C0.228455 19.0436 0.0164691 18.5354 0.015143 18.005C0.0144864 17.7424 0.0655669 17.4822 0.16547 17.2393C0.265372 16.9963 0.412141 16.7755 0.597394 16.5893C0.971529 16.2133 1.47971 16.0013 2.01014 16H2.02014C2.55058 16 3.05928 16.2107 3.43436 16.5858C3.80943 16.9609 4.02014 17.4696 4.02014 18C4.02014 18.5304 3.80943 19.0391 3.43436 19.4142C3.05928 19.7893 2.55058 20 2.02014 20Z" fill="#52525A"/>
</svg>
